<svg width="664" height="394" viewBox="0 0 664 394" fill="none" xmlns="http://www.w3.org/2000/svg">
<rect x="135" y="37" width="140" height="25" fill="#FFF620"/>
<rect x="36" y="135.995" width="140" height="25" transform="rotate(-45 36 135.995)" fill="#FFF620"/>
<rect x="275.626" y="36.7241" width="102.372" height="25" transform="rotate(45 275.626 36.7241)" fill="#FFF620"/>
<rect x="276" y="377" width="140" height="25" transform="rotate(-180 276 377)" fill="#FFF620"/>
<rect x="61" y="136" width="141" height="25" transform="rotate(90 61 136)" fill="#FFF620"/>
<rect x="347.245" y="305.76" width="100.749" height="25" transform="rotate(135 347.245 305.76)" fill="#FFF620"/>
<rect x="135.374" y="377.276" width="140" height="25" transform="rotate(-135 135.374 377.276)" fill="#FFF620"/>
<ellipse cx="196.5" cy="207" rx="160.5" ry="164" fill="#FFF620"/>
<rect x="384" y="38.2759" width="140" height="25" fill="#FFF620"/>
<rect x="599" y="278.276" width="140" height="25" transform="rotate(-90 599 278.276)" fill="#FFF620"/>
<rect x="313.684" y="108.587" width="99.4342" height="25" transform="rotate(-45 313.684 108.587)" fill="#FFF620"/>
<rect x="524.626" y="38" width="140" height="25" transform="rotate(45 524.626 38)" fill="#FFF620"/>
<rect x="525" y="378.276" width="140" height="25" transform="rotate(-180 525 378.276)" fill="#FFF620"/>
<rect x="335" y="138.276" width="140" height="50" transform="rotate(90 335 138.276)" fill="#FFF620"/>
<rect x="624" y="279.281" width="140" height="25" transform="rotate(135 624 279.281)" fill="#FFF620"/>
<rect x="384.374" y="378.552" width="91.7339" height="25" transform="rotate(-135 384.374 378.552)" fill="#FFF620"/>
<ellipse cx="460" cy="208" rx="155" ry="164" fill="#FFF620"/>
<rect x="326.855" y="393.711" width="67.6777" height="67.6777" transform="rotate(-135 326.855 393.711)" fill="black"/>
<path d="M632.859 30.4635L537.18 73.3782L589.945 126.142L632.859 30.4635Z" fill="black"/>
<path d="M30.4634 30.4635L126.142 73.3782L73.3781 126.142L30.4634 30.4635Z" fill="black"/>
</svg>
