<svg width="588" height="343" viewBox="0 0 588 343" fill="none" xmlns="http://www.w3.org/2000/svg">
<rect x="99" y="1" width="140" height="25" fill="#FFF620"/>
<rect y="99.9949" width="140" height="25" transform="rotate(-45 0 99.9949)" fill="#FFF620"/>
<rect x="239.626" y="0.72406" width="102.372" height="25" transform="rotate(45 239.626 0.72406)" fill="#FFF620"/>
<rect x="240" y="341" width="140" height="25" transform="rotate(-180 240 341)" fill="#FFF620"/>
<rect x="25" y="100" width="141" height="25" transform="rotate(90 25 100)" fill="#FFF620"/>
<rect x="311.245" y="269.76" width="100.749" height="25" transform="rotate(135 311.245 269.76)" fill="#FFF620"/>
<rect x="99.3737" y="341.276" width="140" height="25" transform="rotate(-135 99.3737 341.276)" fill="#FFF620"/>
<rect x="348" y="2.27594" width="140" height="25" fill="#FFF620"/>
<rect x="563" y="242.276" width="140" height="25" transform="rotate(-90 563 242.276)" fill="#FFF620"/>
<rect x="277.684" y="72.5865" width="99.4342" height="25" transform="rotate(-45 277.684 72.5865)" fill="#FFF620"/>
<rect x="488.626" y="2" width="140" height="25" transform="rotate(45 488.626 2)" fill="#FFF620"/>
<rect x="489" y="342.276" width="140" height="25" transform="rotate(-180 489 342.276)" fill="#FFF620"/>
<rect x="588" y="243.281" width="140" height="25" transform="rotate(135 588 243.281)" fill="#FFF620"/>
<rect x="348.374" y="342.552" width="91.7339" height="25" transform="rotate(-135 348.374 342.552)" fill="#FFF620"/>
</svg>
