<svg width="521" height="275" viewBox="0 0 521 275" fill="none" xmlns="http://www.w3.org/2000/svg">
<rect x="80" width="113" height="25" fill="black"/>
<rect y="79.962" width="113.083" height="25.5095" transform="rotate(-45 0 79.962)" fill="black"/>
<rect y="193" width="113" height="25" transform="rotate(-90 0 193)" fill="black"/>
<rect x="79.962" y="273" width="113.083" height="25.5095" transform="rotate(-135 79.962 273)" fill="black"/>
<rect x="193" y="273" width="113" height="25" transform="rotate(-180 193 273)" fill="black"/>
<rect x="273" y="193.038" width="113.083" height="25.5095" transform="rotate(135 273 193.038)" fill="black"/>
<rect x="273" y="80" width="113" height="25" transform="rotate(90 273 80)" fill="black"/>
<rect x="193.038" width="113.083" height="25.5095" transform="rotate(45 193.038 0)" fill="black"/>
<rect x="96.5568" y="40" width="79.8865" height="25" fill="black"/>
<rect x="40" y="96.5299" width="79.9454" height="25" transform="rotate(-45 40 96.5299)" fill="black"/>
<rect x="40" y="176.443" width="79.8865" height="25" transform="rotate(-90 40 176.443)" fill="black"/>
<rect x="96.5299" y="233" width="79.9454" height="25" transform="rotate(-135 96.5299 233)" fill="black"/>
<rect x="176.443" y="233" width="79.8865" height="25" transform="rotate(-180 176.443 233)" fill="black"/>
<rect x="233" y="176.47" width="79.9454" height="25" transform="rotate(135 233 176.47)" fill="black"/>
<rect x="233" y="96.5568" width="79.8865" height="25" transform="rotate(90 233 96.5568)" fill="black"/>
<rect x="176.47" y="40" width="79.9454" height="25" transform="rotate(45 176.47 40)" fill="black"/>
<rect x="113.527" y="80" width="45.9451" height="25" fill="black"/>
<rect x="81" y="112.512" width="45.979" height="25" transform="rotate(-45 81 112.512)" fill="black"/>
<rect x="81" y="158.473" width="45.9451" height="25" transform="rotate(-90 81 158.473)" fill="black"/>
<rect x="113.512" y="191" width="45.979" height="25" transform="rotate(-135 113.512 191)" fill="black"/>
<rect x="159.473" y="191" width="45.9451" height="25" transform="rotate(-180 159.473 191)" fill="black"/>
<rect x="192" y="158.488" width="45.979" height="25" transform="rotate(135 192 158.488)" fill="black"/>
<rect x="192" y="112.527" width="45.9451" height="25" transform="rotate(90 192 112.527)" fill="black"/>
<rect x="159.488" y="80" width="45.979" height="25" transform="rotate(45 159.488 80)" fill="black"/>
<rect x="328" y="2" width="113" height="25" fill="black"/>
<rect x="248" y="81.962" width="113.083" height="25.5095" transform="rotate(-45 248 81.962)" fill="black"/>
<rect x="248" y="195" width="113" height="25" transform="rotate(-90 248 195)" fill="black"/>
<rect x="327.962" y="275" width="113.083" height="25.5095" transform="rotate(-135 327.962 275)" fill="black"/>
<rect x="441" y="275" width="113" height="25" transform="rotate(-180 441 275)" fill="black"/>
<rect x="521" y="195.038" width="113.083" height="25.5095" transform="rotate(135 521 195.038)" fill="black"/>
<rect x="521" y="82" width="113" height="25" transform="rotate(90 521 82)" fill="black"/>
<rect x="441.038" y="2" width="113.083" height="25.5095" transform="rotate(45 441.038 2)" fill="black"/>
<rect x="344.557" y="42" width="79.8865" height="25" fill="black"/>
<rect x="288" y="98.5299" width="79.9454" height="25" transform="rotate(-45 288 98.5299)" fill="black"/>
<rect x="288" y="178.443" width="79.8865" height="25" transform="rotate(-90 288 178.443)" fill="black"/>
<rect x="344.53" y="235" width="79.9454" height="25" transform="rotate(-135 344.53 235)" fill="black"/>
<rect x="424.443" y="235" width="79.8865" height="25" transform="rotate(-180 424.443 235)" fill="black"/>
<rect x="481" y="178.47" width="79.9454" height="25" transform="rotate(135 481 178.47)" fill="black"/>
<rect x="481" y="98.5568" width="79.8865" height="25" transform="rotate(90 481 98.5568)" fill="black"/>
<rect x="424.47" y="42" width="79.9454" height="25" transform="rotate(45 424.47 42)" fill="black"/>
<rect x="361.527" y="82" width="45.9451" height="25" fill="black"/>
<rect x="329" y="114.512" width="45.979" height="25" transform="rotate(-45 329 114.512)" fill="black"/>
<rect x="329" y="160.473" width="45.9451" height="25" transform="rotate(-90 329 160.473)" fill="black"/>
<rect x="361.512" y="193" width="45.979" height="25" transform="rotate(-135 361.512 193)" fill="black"/>
<rect x="407.473" y="193" width="45.9451" height="25" transform="rotate(-180 407.473 193)" fill="black"/>
<rect x="440" y="160.488" width="45.979" height="25" transform="rotate(135 440 160.488)" fill="black"/>
<rect x="440" y="114.527" width="45.9451" height="25" transform="rotate(90 440 114.527)" fill="black"/>
<rect x="407.488" y="82" width="45.979" height="25" transform="rotate(45 407.488 82)" fill="black"/>
</svg>
