<svg width="603" height="364" viewBox="0 0 603 364" fill="none" xmlns="http://www.w3.org/2000/svg">
<rect x="105" y="7" width="140" height="25" fill="#FFF620"/>
<rect x="6" y="105.995" width="140" height="25" transform="rotate(-45 6 105.995)" fill="#FFF620"/>
<rect x="245.626" y="6.72406" width="102.372" height="25" transform="rotate(45 245.626 6.72406)" fill="#FFF620"/>
<rect x="246" y="347" width="140" height="25" transform="rotate(-180 246 347)" fill="#FFF620"/>
<rect x="31" y="106" width="141" height="25" transform="rotate(90 31 106)" fill="#FFF620"/>
<rect x="317.245" y="275.76" width="100.749" height="25" transform="rotate(135 317.245 275.76)" fill="#FFF620"/>
<rect x="105.374" y="347.276" width="140" height="25" transform="rotate(-135 105.374 347.276)" fill="#FFF620"/>
<ellipse cx="166.5" cy="177" rx="160.5" ry="164" fill="#FFF620"/>
<rect x="354" y="8.27594" width="140" height="25" fill="#FFF620"/>
<rect x="569" y="248.276" width="140" height="25" transform="rotate(-90 569 248.276)" fill="#FFF620"/>
<rect x="283.684" y="78.5865" width="99.4342" height="25" transform="rotate(-45 283.684 78.5865)" fill="#FFF620"/>
<rect x="494.626" y="8" width="140" height="25" transform="rotate(45 494.626 8)" fill="#FFF620"/>
<rect x="495" y="348.276" width="140" height="25" transform="rotate(-180 495 348.276)" fill="#FFF620"/>
<rect x="305" y="108.276" width="140" height="50" transform="rotate(90 305 108.276)" fill="#FFF620"/>
<rect x="594" y="249.281" width="140" height="25" transform="rotate(135 594 249.281)" fill="#FFF620"/>
<rect x="354.374" y="348.552" width="91.7339" height="25" transform="rotate(-135 354.374 348.552)" fill="#FFF620"/>
<ellipse cx="430" cy="178" rx="155" ry="164" fill="#FFF620"/>
<rect x="296.855" y="363.711" width="67.6777" height="67.6777" transform="rotate(-135 296.855 363.711)" fill="black"/>
<path d="M602.859 0.463464L507.18 43.3782L559.945 96.1424L602.859 0.463464Z" fill="black"/>
<path d="M0.463431 0.463464L96.1423 43.3782L43.3781 96.1424L0.463431 0.463464Z" fill="black"/>
<rect x="119" y="41" width="113" height="25" fill="black"/>
<rect x="39" y="120.962" width="113.083" height="25.5095" transform="rotate(-45 39 120.962)" fill="black"/>
<rect x="39" y="234" width="113" height="25" transform="rotate(-90 39 234)" fill="black"/>
<rect x="118.962" y="314" width="113.083" height="25.5095" transform="rotate(-135 118.962 314)" fill="black"/>
<rect x="232" y="314" width="113" height="25" transform="rotate(-180 232 314)" fill="black"/>
<rect x="312" y="234.038" width="113.083" height="25.5095" transform="rotate(135 312 234.038)" fill="black"/>
<rect x="312" y="121" width="113" height="25" transform="rotate(90 312 121)" fill="black"/>
<rect x="232.038" y="41" width="113.083" height="25.5095" transform="rotate(45 232.038 41)" fill="black"/>
<rect x="135.557" y="81" width="79.8865" height="25" fill="black"/>
<rect x="79" y="137.53" width="79.9454" height="25" transform="rotate(-45 79 137.53)" fill="black"/>
<rect x="79" y="217.443" width="79.8865" height="25" transform="rotate(-90 79 217.443)" fill="black"/>
<rect x="135.53" y="274" width="79.9454" height="25" transform="rotate(-135 135.53 274)" fill="black"/>
<rect x="215.443" y="274" width="79.8865" height="25" transform="rotate(-180 215.443 274)" fill="black"/>
<rect x="272" y="217.47" width="79.9454" height="25" transform="rotate(135 272 217.47)" fill="black"/>
<rect x="272" y="137.557" width="79.8865" height="25" transform="rotate(90 272 137.557)" fill="black"/>
<rect x="215.47" y="81" width="79.9454" height="25" transform="rotate(45 215.47 81)" fill="black"/>
<rect x="152.527" y="121" width="45.9451" height="25" fill="black"/>
<rect x="120" y="153.512" width="45.979" height="25" transform="rotate(-45 120 153.512)" fill="black"/>
<rect x="120" y="199.473" width="45.9451" height="25" transform="rotate(-90 120 199.473)" fill="black"/>
<rect x="152.512" y="232" width="45.979" height="25" transform="rotate(-135 152.512 232)" fill="black"/>
<rect x="198.473" y="232" width="45.9451" height="25" transform="rotate(-180 198.473 232)" fill="black"/>
<rect x="231" y="199.488" width="45.979" height="25" transform="rotate(135 231 199.488)" fill="black"/>
<rect x="231" y="153.527" width="45.9451" height="25" transform="rotate(90 231 153.527)" fill="black"/>
<rect x="198.488" y="121" width="45.979" height="25" transform="rotate(45 198.488 121)" fill="black"/>
<rect x="367" y="43" width="113" height="25" fill="black"/>
<rect x="287" y="122.962" width="113.083" height="25.5095" transform="rotate(-45 287 122.962)" fill="black"/>
<rect x="287" y="236" width="113" height="25" transform="rotate(-90 287 236)" fill="black"/>
<rect x="366.962" y="316" width="113.083" height="25.5095" transform="rotate(-135 366.962 316)" fill="black"/>
<rect x="480" y="316" width="113" height="25" transform="rotate(-180 480 316)" fill="black"/>
<rect x="560" y="236.038" width="113.083" height="25.5095" transform="rotate(135 560 236.038)" fill="black"/>
<rect x="560" y="123" width="113" height="25" transform="rotate(90 560 123)" fill="black"/>
<rect x="480.038" y="43" width="113.083" height="25.5095" transform="rotate(45 480.038 43)" fill="black"/>
<rect x="383.557" y="83" width="79.8865" height="25" fill="black"/>
<rect x="327" y="139.53" width="79.9454" height="25" transform="rotate(-45 327 139.53)" fill="black"/>
<rect x="327" y="219.443" width="79.8865" height="25" transform="rotate(-90 327 219.443)" fill="black"/>
<rect x="383.53" y="276" width="79.9454" height="25" transform="rotate(-135 383.53 276)" fill="black"/>
<rect x="463.443" y="276" width="79.8865" height="25" transform="rotate(-180 463.443 276)" fill="black"/>
<rect x="520" y="219.47" width="79.9454" height="25" transform="rotate(135 520 219.47)" fill="black"/>
<rect x="520" y="139.557" width="79.8865" height="25" transform="rotate(90 520 139.557)" fill="black"/>
<rect x="463.47" y="83" width="79.9454" height="25" transform="rotate(45 463.47 83)" fill="black"/>
<rect x="400.527" y="123" width="45.9451" height="25" fill="black"/>
<rect x="368" y="155.512" width="45.979" height="25" transform="rotate(-45 368 155.512)" fill="black"/>
<rect x="368" y="201.473" width="45.9451" height="25" transform="rotate(-90 368 201.473)" fill="black"/>
<rect x="400.512" y="234" width="45.979" height="25" transform="rotate(-135 400.512 234)" fill="black"/>
<rect x="446.473" y="234" width="45.9451" height="25" transform="rotate(-180 446.473 234)" fill="black"/>
<rect x="479" y="201.488" width="45.979" height="25" transform="rotate(135 479 201.488)" fill="black"/>
<rect x="479" y="155.527" width="45.9451" height="25" transform="rotate(90 479 155.527)" fill="black"/>
<rect x="446.488" y="123" width="45.979" height="25" transform="rotate(45 446.488 123)" fill="black"/>
</svg>
